<?xml version="1.0" encoding="UTF-8"?>
<svg xmlns="http://www.w3.org/2000/svg"
     xmlns:xlink="http://www.w3.org/1999/xlink"
     xmlns:gadfly="http://www.gadflyjl.org/ns"
     version="1.2"
     width="152.4mm" height="152.4mm" viewBox="0 0 152.4 152.4"
     stroke="none"
     fill="#000000"
     stroke-width="0.3"
     font-size="3.88"
>
<g stroke="#000000" stroke-opacity="0.000" fill="#002B36" id="img-4fb90fd0-1">
  <rect x="0" y="0" width="152.4" height="152.4"/>
</g>
<g class="plotroot xscalable yscalable" id="img-4fb90fd0-2">
  <g font-size="5.29" font-family="'PT Sans','Helvetica Neue','Helvetica',sans-serif" fill="#3AA198" stroke="#000000" stroke-opacity="0.000" id="img-4fb90fd0-3">
    <text x="86.27" y="139.47" text-anchor="middle" dy="0.6em">ω</text>
  </g>
  <g class="guide xlabels" font-size="3.53" font-family="'PT Sans Caption','Helvetica Neue','Helvetica',sans-serif" fill="#EEE8D5" id="img-4fb90fd0-4">
    <text x="27.13" y="132.13" text-anchor="middle" dy="0.6em">0</text>
    <text x="46.84" y="132.13" text-anchor="middle" dy="0.6em">1</text>
    <text x="66.56" y="132.13" text-anchor="middle" dy="0.6em">2</text>
    <text x="86.27" y="132.13" text-anchor="middle" dy="0.6em">3</text>
    <text x="105.98" y="132.13" text-anchor="middle" dy="0.6em">4</text>
    <text x="125.69" y="132.13" text-anchor="middle" dy="0.6em">5</text>
    <text x="145.4" y="132.13" text-anchor="middle" dy="0.6em">6</text>
  </g>
<g clip-path="url(#img-4fb90fd0-5)">
  <g id="img-4fb90fd0-6">
    <g pointer-events="visible" opacity="0" fill="#000000" fill-opacity="0.000" stroke="#000000" stroke-opacity="0.000" class="guide background" id="img-4fb90fd0-7">
      <rect x="25.13" y="11.92" width="122.27" height="119.21"/>
    </g>
    <g class="guide ygridlines xfixed" stroke-dasharray="0.5,0.5" stroke-width="0.2" stroke="#EEE8D5" id="img-4fb90fd0-8">
      <path fill="none" d="M25.13,129.13 L 147.4 129.13"/>
      <path fill="none" d="M25.13,71.53 L 147.4 71.53"/>
      <path fill="none" d="M25.13,13.92 L 147.4 13.92"/>
    </g>
    <g class="guide xgridlines yfixed" stroke-dasharray="0.5,0.5" stroke-width="0.2" stroke="#EEE8D5" id="img-4fb90fd0-9">
      <path fill="none" d="M27.13,11.92 L 27.13 131.13"/>
      <path fill="none" d="M46.84,11.92 L 46.84 131.13"/>
      <path fill="none" d="M66.56,11.92 L 66.56 131.13"/>
      <path fill="none" d="M86.27,11.92 L 86.27 131.13"/>
      <path fill="none" d="M105.98,11.92 L 105.98 131.13"/>
      <path fill="none" d="M125.69,11.92 L 125.69 131.13"/>
      <path fill="none" d="M145.4,11.92 L 145.4 131.13"/>
    </g>
    <g class="plotpanel" id="img-4fb90fd0-10">
      <g shape-rendering="crispEdges" stroke-width="0" id="img-4fb90fd0-11">
        <g stroke="#000000" stroke-opacity="0.000" class="geometry" id="img-4fb90fd0-12">
          <g fill="#268BD2" id="img-4fb90fd0-13">
            <rect x="26.71" y="127.6" width="0.84" height="1.54"/>
            <rect x="27.51" y="129.13" width="0.84" height="0.01"/>
            <rect x="28.3" y="129.13" width="0.84" height="0.01"/>
            <rect x="29.09" y="119.92" width="0.84" height="9.22"/>
            <rect x="29.89" y="129.13" width="0.84" height="0.01"/>
            <rect x="30.68" y="129.13" width="0.84" height="0.01"/>
            <rect x="31.47" y="119.92" width="0.84" height="9.22"/>
            <rect x="32.27" y="119.92" width="0.84" height="9.22"/>
            <rect x="33.06" y="129.13" width="0.84" height="0.01"/>
            <rect x="33.86" y="110.7" width="0.84" height="18.43"/>
            <rect x="34.65" y="124.52" width="0.84" height="4.61"/>
            <rect x="35.44" y="124.53" width="0.84" height="4.61"/>
            <rect x="36.24" y="110.7" width="0.84" height="18.43"/>
            <rect x="37.03" y="115.31" width="0.84" height="13.83"/>
            <rect x="37.82" y="129.13" width="0.84" height="0.01"/>
            <rect x="38.62" y="106.09" width="0.84" height="23.04"/>
            <rect x="39.41" y="115.31" width="0.84" height="13.83"/>
            <rect x="40.2" y="119.92" width="0.84" height="9.22"/>
            <rect x="41" y="101.48" width="0.84" height="27.65"/>
            <rect x="41.79" y="110.7" width="0.84" height="18.43"/>
            <rect x="42.59" y="129.13" width="0.84" height="0.01"/>
            <rect x="43.38" y="92.27" width="0.84" height="36.87"/>
            <rect x="44.17" y="115.31" width="0.84" height="13.83"/>
            <rect x="44.97" y="115.31" width="0.84" height="13.83"/>
            <rect x="45.76" y="92.27" width="0.84" height="36.87"/>
            <rect x="46.55" y="106.09" width="0.84" height="23.04"/>
            <rect x="47.35" y="110.7" width="0.84" height="18.43"/>
            <rect x="48.14" y="96.88" width="0.84" height="32.26"/>
            <rect x="48.94" y="115.31" width="0.84" height="13.82"/>
            <rect x="49.73" y="73.83" width="0.84" height="55.3"/>
            <rect x="50.52" y="115.31" width="0.84" height="13.83"/>
            <rect x="51.32" y="96.88" width="0.84" height="32.26"/>
            <rect x="52.11" y="101.48" width="0.84" height="27.65"/>
            <rect x="52.9" y="96.88" width="0.84" height="32.26"/>
            <rect x="53.7" y="83.05" width="0.84" height="46.08"/>
            <rect x="54.49" y="101.48" width="0.84" height="27.65"/>
            <rect x="55.29" y="83.05" width="0.84" height="46.08"/>
            <rect x="56.08" y="87.66" width="0.84" height="41.48"/>
            <rect x="56.87" y="92.27" width="0.84" height="36.87"/>
            <rect x="57.67" y="73.83" width="0.84" height="55.3"/>
            <rect x="58.46" y="92.27" width="0.84" height="36.87"/>
            <rect x="59.25" y="78.44" width="0.84" height="50.69"/>
            <rect x="60.05" y="69.22" width="0.84" height="59.91"/>
            <rect x="60.84" y="69.22" width="0.84" height="59.91"/>
            <rect x="61.64" y="87.66" width="0.84" height="41.47"/>
            <rect x="62.43" y="60.01" width="0.84" height="69.13"/>
            <rect x="63.22" y="50.79" width="0.84" height="78.34"/>
            <rect x="64.02" y="64.62" width="0.84" height="64.52"/>
            <rect x="64.81" y="41.58" width="0.84" height="87.56"/>
            <rect x="65.6" y="16.23" width="0.84" height="112.91"/>
            <rect x="66.4" y="27.75" width="0.84" height="101.38"/>
            <rect x="67.19" y="36.97" width="0.84" height="92.17"/>
            <rect x="67.99" y="41.57" width="0.84" height="87.56"/>
            <rect x="68.78" y="69.23" width="0.84" height="59.91"/>
            <rect x="69.57" y="55.4" width="0.84" height="73.73"/>
            <rect x="70.37" y="73.83" width="0.84" height="55.3"/>
            <rect x="71.16" y="55.4" width="0.84" height="73.73"/>
            <rect x="71.95" y="83.05" width="0.84" height="46.08"/>
            <rect x="72.75" y="46.18" width="0.84" height="82.95"/>
            <rect x="73.54" y="83.05" width="0.84" height="46.08"/>
            <rect x="74.34" y="60.01" width="0.84" height="69.13"/>
            <rect x="75.13" y="87.66" width="0.84" height="41.47"/>
            <rect x="75.92" y="64.62" width="0.84" height="64.52"/>
            <rect x="76.72" y="64.62" width="0.84" height="64.52"/>
            <rect x="77.51" y="78.44" width="0.84" height="50.69"/>
            <rect x="78.3" y="92.27" width="0.84" height="36.87"/>
            <rect x="79.1" y="60.01" width="0.84" height="69.13"/>
            <rect x="79.89" y="92.27" width="0.84" height="36.87"/>
            <rect x="80.69" y="69.22" width="0.84" height="59.91"/>
            <rect x="81.48" y="83.05" width="0.84" height="46.08"/>
            <rect x="82.27" y="64.62" width="0.84" height="64.52"/>
            <rect x="83.07" y="92.27" width="0.84" height="36.87"/>
            <rect x="83.86" y="73.83" width="0.84" height="55.3"/>
            <rect x="84.65" y="101.48" width="0.84" height="27.65"/>
            <rect x="85.45" y="64.62" width="0.84" height="64.52"/>
            <rect x="86.24" y="83.05" width="0.84" height="46.08"/>
            <rect x="87.04" y="96.88" width="0.84" height="32.26"/>
            <rect x="87.83" y="83.05" width="0.84" height="46.08"/>
            <rect x="88.62" y="69.22" width="0.84" height="59.91"/>
            <rect x="89.42" y="92.27" width="0.84" height="36.87"/>
            <rect x="90.21" y="69.23" width="0.84" height="59.91"/>
            <rect x="91" y="92.27" width="0.84" height="36.87"/>
            <rect x="91.8" y="92.27" width="0.84" height="36.87"/>
            <rect x="92.59" y="92.27" width="0.84" height="36.87"/>
            <rect x="93.39" y="64.62" width="0.84" height="64.52"/>
            <rect x="94.18" y="110.7" width="0.84" height="18.43"/>
            <rect x="94.97" y="83.05" width="0.84" height="46.08"/>
            <rect x="95.77" y="83.05" width="0.84" height="46.08"/>
            <rect x="96.56" y="78.44" width="0.84" height="50.69"/>
            <rect x="97.35" y="101.48" width="0.84" height="27.65"/>
            <rect x="98.15" y="60.01" width="0.84" height="69.12"/>
            <rect x="98.94" y="110.7" width="0.84" height="18.43"/>
            <rect x="99.74" y="87.66" width="0.84" height="41.48"/>
            <rect x="100.53" y="83.05" width="0.84" height="46.08"/>
            <rect x="101.32" y="92.27" width="0.84" height="36.87"/>
            <rect x="102.12" y="92.27" width="0.84" height="36.87"/>
            <rect x="102.91" y="69.22" width="0.84" height="59.91"/>
            <rect x="103.7" y="106.09" width="0.84" height="23.04"/>
            <rect x="104.5" y="101.48" width="0.84" height="27.65"/>
            <rect x="105.29" y="69.77" width="0.84" height="59.36"/>
            <rect x="106.09" y="100.94" width="0.84" height="28.2"/>
            <rect x="106.88" y="83.05" width="0.84" height="46.08"/>
            <rect x="107.67" y="92.27" width="0.84" height="36.87"/>
            <rect x="108.47" y="92.27" width="0.84" height="36.87"/>
            <rect x="109.26" y="101.48" width="0.84" height="27.65"/>
            <rect x="110.05" y="83.05" width="0.84" height="46.08"/>
            <rect x="110.85" y="92.27" width="0.84" height="36.87"/>
            <rect x="111.64" y="96.87" width="0.84" height="32.26"/>
            <rect x="112.43" y="69.22" width="0.84" height="59.91"/>
            <rect x="113.23" y="110.7" width="0.84" height="18.43"/>
            <rect x="114.02" y="87.66" width="0.84" height="41.48"/>
            <rect x="114.82" y="83.05" width="0.84" height="46.08"/>
            <rect x="115.61" y="101.48" width="0.84" height="27.65"/>
            <rect x="116.4" y="87.66" width="0.84" height="41.48"/>
            <rect x="117.2" y="87.66" width="0.84" height="41.48"/>
            <rect x="117.99" y="110.7" width="0.84" height="18.43"/>
            <rect x="118.78" y="87.66" width="0.84" height="41.47"/>
            <rect x="119.58" y="83.05" width="0.84" height="46.08"/>
            <rect x="120.37" y="110.7" width="0.84" height="18.43"/>
            <rect x="121.17" y="64.62" width="0.84" height="64.52"/>
            <rect x="121.96" y="110.7" width="0.84" height="18.43"/>
            <rect x="122.75" y="92.27" width="0.84" height="36.87"/>
            <rect x="123.55" y="87.66" width="0.84" height="41.48"/>
            <rect x="124.34" y="110.7" width="0.84" height="18.43"/>
            <rect x="125.13" y="78.44" width="0.84" height="50.69"/>
            <rect x="125.93" y="106.09" width="0.84" height="23.04"/>
            <rect x="126.72" y="92.27" width="0.84" height="36.87"/>
            <rect x="127.52" y="101.48" width="0.84" height="27.65"/>
            <rect x="128.31" y="96.88" width="0.84" height="32.26"/>
            <rect x="129.1" y="78.44" width="0.84" height="50.69"/>
            <rect x="129.9" y="106.09" width="0.84" height="23.04"/>
            <rect x="130.69" y="92.27" width="0.84" height="36.87"/>
            <rect x="131.48" y="101.48" width="0.84" height="27.65"/>
            <rect x="132.28" y="83.05" width="0.84" height="46.08"/>
            <rect x="133.07" y="110.7" width="0.84" height="18.43"/>
            <rect x="133.87" y="87.66" width="0.84" height="41.47"/>
            <rect x="134.66" y="101.48" width="0.84" height="27.65"/>
            <rect x="135.45" y="92.27" width="0.84" height="36.87"/>
            <rect x="136.25" y="92.27" width="0.84" height="36.87"/>
            <rect x="137.04" y="96.87" width="0.84" height="32.26"/>
            <rect x="137.83" y="96.88" width="0.84" height="32.26"/>
            <rect x="138.63" y="96.88" width="0.84" height="32.26"/>
            <rect x="139.42" y="96.87" width="0.84" height="32.26"/>
            <rect x="140.22" y="96.88" width="0.84" height="32.26"/>
            <rect x="141.01" y="96.87" width="0.84" height="32.26"/>
            <rect x="141.8" y="92.27" width="0.84" height="36.87"/>
            <rect x="142.6" y="96.88" width="0.84" height="32.26"/>
            <rect x="143.39" y="101.48" width="0.84" height="27.65"/>
            <rect x="144.18" y="92.27" width="0.84" height="36.87"/>
            <rect x="144.98" y="100.72" width="0.84" height="28.42"/>
          </g>
        </g>
      </g>
    </g>
  </g>
</g>
  <g class="guide ylabels" font-size="3.53" font-family="'PT Sans Caption','Helvetica Neue','Helvetica',sans-serif" fill="#EEE8D5" id="img-4fb90fd0-14">
    <text x="24.13" y="129.13" text-anchor="end" dy="0.35em">0.000</text>
    <text x="24.13" y="71.53" text-anchor="end" dy="0.35em">0.005</text>
    <text x="24.13" y="13.92" text-anchor="end" dy="0.35em">0.010</text>
  </g>
  <g font-size="5.29" font-family="'PT Sans','Helvetica Neue','Helvetica',sans-serif" fill="#3AA198" stroke="#000000" stroke-opacity="0.000" id="img-4fb90fd0-15">
    <text x="9.46" y="69.53" text-anchor="middle" dy="0.35em" transform="rotate(-90, 9.46, 71.53)">LDOS(ω)</text>
  </g>
  <g font-size="5.29" font-family="'PT Sans','Helvetica Neue','Helvetica',sans-serif" fill="#3AA198" stroke="#000000" stroke-opacity="0.000" id="img-4fb90fd0-16">
    <text x="86.27" y="5" text-anchor="middle" dy="0.6em">Zero flux, Undistorted LDOS</text>
  </g>
</g>
<defs>
  <clipPath id="img-4fb90fd0-5">
  <path d="M25.13,11.92 L 147.4 11.92 147.4 131.13 25.13 131.13" />
</clipPath>
</defs>
</svg>
